<svg data-v-423bf9ae="" xmlns="http://www.w3.org/2000/svg" viewBox="0 0 603 107" class="iconLeftSlogan"><!----><!----><!----><g data-v-423bf9ae="" id="3726a1c6-e22e-4dab-a6ca-2992c10fdf33" fill="white" transform="matrix(5.791505450303629,0,0,5.791505450303629,122.13185432733553,-20.849419545609223)"><path d="M3.86 13.94C6.15 13.94 6.90 12.54 6.90 10.82L6.90 4.52L1.89 4.52L1.89 5.50L5.74 5.50L5.74 10.72C5.74 12.25 5.15 12.92 3.84 12.92C3.12 12.92 2.42 12.53 1.89 11.70L1.13 12.40C1.76 13.48 2.83 13.94 3.86 13.94ZM12.60 13.96C14.39 13.96 15.96 12.59 15.96 10.22C15.96 7.83 14.39 6.47 12.60 6.47C10.81 6.47 9.24 7.83 9.24 10.22C9.24 12.59 10.81 13.96 12.60 13.96ZM12.60 13.01C11.30 13.01 10.43 11.89 10.43 10.22C10.43 8.55 11.30 7.42 12.60 7.42C13.90 7.42 14.77 8.55 14.77 10.22C14.77 11.89 13.90 13.01 12.60 13.01ZM18.10 13.78L19.25 13.78L19.25 8.79C20.05 7.90 20.59 7.46 21.41 7.46C22.53 7.46 22.97 8.12 22.97 9.49L22.97 13.78L24.12 13.78L24.12 9.34C24.12 7.46 23.38 6.47 21.77 6.47C20.71 6.47 19.92 7.07 19.21 7.88L19.15 7.88L19.05 6.64L18.10 6.64ZM29.01 8.36L29.79 8.36L30.14 5.54L30.17 4.16L28.63 4.16L28.66 5.54ZM37.94 13.96C39.89 13.96 40.96 12.99 40.96 11.83C40.96 10.75 40.08 10.19 38.25 9.70C37.02 9.38 36.18 9.02 36.18 8.43C36.18 7.85 36.58 7.36 37.86 7.36C38.70 7.36 39.42 7.67 40.03 8.12L40.59 7.36C39.91 6.89 38.88 6.47 37.86 6.47C35.98 6.47 35 7.35 35 8.48C35 9.48 36.19 10.14 37.59 10.50C39.26 10.93 39.80 11.34 39.80 11.90C39.80 12.54 39.20 13.05 37.98 13.05C36.76 13.05 35.92 12.67 35.17 12.08L34.61 12.84C35.43 13.44 36.61 13.96 37.94 13.96ZM54.01 13.78L55.19 13.78L55.19 5.52L58.21 5.52L58.21 4.54L50.99 4.54L50.99 5.52L54.01 5.52ZM63.42 13.96C64.51 13.96 65.37 13.57 66.04 13.12L65.63 12.35C65.00 12.77 64.36 13.02 63.56 13.02C62.08 13.02 61.01 12.03 60.96 10.49L66.28 10.49C66.30 10.30 66.32 10.05 66.32 9.81C66.32 7.80 65.17 6.47 63.22 6.47C61.46 6.47 59.77 7.90 59.77 10.22C59.77 12.56 61.40 13.96 63.42 13.96ZM60.94 9.65C61.12 8.22 62.13 7.38 63.24 7.38C64.50 7.38 65.25 8.19 65.25 9.65ZM72.04 13.96C73.05 13.96 74.00 13.54 74.75 12.84L74.24 12.10C73.67 12.60 72.97 13.01 72.13 13.01C70.56 13.01 69.51 11.89 69.51 10.22C69.51 8.55 70.59 7.42 72.16 7.42C72.87 7.42 73.46 7.73 74.02 8.26L74.59 7.52C74.03 6.94 73.22 6.47 72.11 6.47C70.06 6.47 68.32 7.83 68.32 10.22C68.32 12.59 69.92 13.96 72.04 13.96ZM76.90 13.78L78.05 13.78L78.05 8.79C78.85 7.90 79.39 7.46 80.21 7.46C81.33 7.46 81.77 8.12 81.77 9.49L81.77 13.78L82.92 13.78L82.92 9.34C82.92 7.46 82.18 6.47 80.57 6.47C79.51 6.47 78.72 7.07 77.99 7.88L78.05 6.17L78.05 3.60L76.90 3.60Z"></path></g><!----><g data-v-423bf9ae="" id="1c703ff4-e4a8-44c5-9ef3-0494c53965f6" transform="matrix(1.0894670274522569,0,0,1.0894670274522569,377.61740470900094,-280.490068798269)" stroke="none" fill="white"><path d="M-246.455 327.152l-16.86-64.454s-1.243-4.756-6.002-4.75l-72.96.08s-4.759.004-3.515 4.761l15.835 60.538c7.148-15.684 15.203-33.301 15.795-34.599l.423-.924 21.84-.021-1.048 2.253c-5.985 12.87-13.768 29.775-19.236 41.944l62.212-.067c.001-.001 4.76-.007 3.516-4.761z"></path><path d="M-296.864 290.954l-14.839.015c-9.094 19.892-25.758 56.396-26.425 58.074-1.594 4.007.346 6.235 1.171 6.957h56.176l-1.875-4.804h-35.137c-.044.002-.107.005-.184.005-1.988 0-3.998-1.204-4.006-3.894-.002-.629-.004-1.579 13.149-30.369a5464.845 5464.845 0 0111.97-25.984z"></path></g><!----><g data-v-423bf9ae="" id="f1ab399f-9efe-47f3-b31b-0913f414370c" fill="white" transform="matrix(0.9920671455112933,0,0,0.9920671455112933,128.25959276147927,56.24006440596256)"><path d="M8.22 3.92L8.02 3.92L0.73 3.92L0.52 3.92L0.42 3.92L0.42 5.96L0.77 5.96C0.97 5.96 1.05 5.85 1.06 5.63C1.06 5.53 1.09 5.17 1.12 4.52L4.02 4.52L4.02 13.26C3.85 13.26 3.71 13.27 3.57 13.27C3.43 13.27 3.32 13.29 3.25 13.29L3.12 13.29C2.94 13.30 2.84 13.38 2.84 13.54L2.84 13.82L4.02 13.82L4.73 13.82L5.92 13.82L5.92 13.54C5.92 13.38 5.82 13.30 5.64 13.29L5.50 13.29C5.43 13.29 5.33 13.27 5.19 13.27C5.05 13.27 4.90 13.26 4.73 13.26L4.73 4.52L7.62 4.52C7.66 5.24 7.67 5.60 7.67 5.63C7.69 5.85 7.78 5.96 7.98 5.96L8.32 5.96L8.32 3.92ZM17.61 3.92L16.42 3.92L16.42 4.19C16.42 4.34 16.52 4.42 16.70 4.44L16.84 4.44C16.91 4.44 17.01 4.45 17.15 4.45C17.29 4.45 17.44 4.47 17.61 4.47L17.61 13.26C17.44 13.26 17.29 13.27 17.15 13.27C17.01 13.27 16.91 13.29 16.84 13.29L16.70 13.29C16.52 13.30 16.44 13.38 16.44 13.54L16.44 13.82L17.61 13.82L23.55 13.82L23.55 13.22L23.55 11.76L23.20 11.76C23.00 11.76 22.92 11.89 22.90 12.11C22.90 12.14 22.89 12.19 22.89 12.29C22.89 12.39 22.89 12.53 22.88 12.74C22.86 12.95 22.85 13.09 22.85 13.22L18.33 13.22L18.33 9.09L22.27 9.09L22.27 8.51L18.33 8.51L18.33 4.51L22.85 4.51C22.88 5.12 22.90 5.50 22.90 5.63C22.92 5.85 23.00 5.96 23.20 5.96L23.55 5.96L23.55 4.51L23.55 3.92ZM39.75 12.21C39.72 12.18 39.68 12.15 39.63 12.15C39.61 12.15 39.59 12.15 39.56 12.17C39.55 12.18 39.52 12.21 39.49 12.22C39.30 12.40 39.09 12.56 38.89 12.70C38.70 12.84 38.49 12.94 38.25 13.03C38.01 13.13 37.76 13.20 37.48 13.24C37.20 13.29 36.89 13.31 36.54 13.31C35.98 13.31 35.43 13.22 34.96 13.01C34.47 12.81 34.06 12.52 33.71 12.14C33.36 11.76 33.07 11.28 32.87 10.74C32.68 10.19 32.58 9.56 32.58 8.86C32.58 8.18 32.68 7.56 32.87 7.01C33.08 6.47 33.36 6.01 33.73 5.61C34.09 5.24 34.52 4.94 35.03 4.73C35.53 4.52 36.08 4.42 36.68 4.42C37.58 4.42 38.40 4.56 39.13 4.89C39.17 5.78 39.21 6.30 39.21 6.41C39.23 6.64 39.31 6.75 39.51 6.75L39.84 6.75L39.84 4.51C38.67 4.03 37.60 3.81 36.68 3.81C35.97 3.81 35.32 3.92 34.72 4.17C34.13 4.42 33.60 4.76 33.18 5.21C32.75 5.66 32.42 6.19 32.19 6.80C31.95 7.42 31.84 8.11 31.84 8.86C31.84 9.63 31.96 10.32 32.19 10.95C32.41 11.58 32.73 12.10 33.14 12.54C33.54 12.99 34.03 13.33 34.61 13.57C35.18 13.80 35.80 13.93 36.48 13.93C36.89 13.93 37.27 13.90 37.62 13.83C37.95 13.76 38.28 13.66 38.57 13.54C38.85 13.41 39.12 13.26 39.35 13.09C39.59 12.91 39.82 12.73 40.03 12.50ZM57.76 4.44C57.95 4.42 58.04 4.34 58.04 4.19L58.04 3.92L56.87 3.92L56.14 3.92L54.96 3.92L54.96 4.19C54.96 4.34 55.06 4.42 55.24 4.44L55.37 4.44C55.44 4.44 55.55 4.45 55.69 4.45C55.83 4.45 55.97 4.47 56.14 4.47L56.14 8.53L49.94 8.53L49.94 4.47C50.11 4.47 50.26 4.45 50.40 4.45C50.54 4.45 50.64 4.44 50.71 4.44L50.85 4.44C51.03 4.42 51.11 4.34 51.11 4.19L51.11 3.92L49.94 3.92L49.22 3.92L48.03 3.92L48.03 4.19C48.03 4.34 48.13 4.42 48.31 4.44L48.45 4.44C48.52 4.44 48.62 4.45 48.76 4.45C48.90 4.45 49.06 4.47 49.22 4.47L49.22 13.26C49.06 13.26 48.90 13.27 48.76 13.27C48.62 13.27 48.52 13.29 48.45 13.29L48.31 13.29C48.13 13.30 48.03 13.38 48.03 13.54L48.03 13.82L49.22 13.82L49.94 13.82L51.11 13.82L51.11 13.54C51.11 13.38 51.03 13.30 50.85 13.29L50.71 13.29C50.64 13.29 50.54 13.27 50.40 13.27C50.26 13.27 50.11 13.26 49.94 13.26L49.94 9.07L56.14 9.07L56.14 13.26C55.97 13.26 55.83 13.27 55.69 13.27C55.55 13.27 55.44 13.29 55.37 13.29L55.24 13.29C55.06 13.30 54.96 13.38 54.96 13.54L54.96 13.82L56.14 13.82L56.87 13.82L58.04 13.82L58.04 13.54C58.04 13.38 57.95 13.30 57.76 13.29L57.64 13.29C57.57 13.29 57.46 13.27 57.32 13.27C57.18 13.27 57.04 13.26 56.87 13.26L56.87 4.47C57.04 4.47 57.18 4.45 57.32 4.45C57.46 4.45 57.57 4.44 57.64 4.44ZM86.06 13.22L85.60 13.17L81.82 3.91L81.10 3.91L77.31 13.17L76.86 13.22C76.68 13.23 76.59 13.33 76.59 13.50L76.59 13.82L77.04 13.82L77.34 13.82L77.59 13.82L77.69 13.82L79.00 13.82L79.00 13.50C79.00 13.31 78.89 13.23 78.68 13.22C78.67 13.22 78.64 13.20 78.60 13.20C78.55 13.20 78.50 13.19 78.40 13.19C78.30 13.19 78.18 13.19 78.04 13.17L79.02 10.75L79.09 10.57L83.82 10.57L83.89 10.75L84.87 13.17C84.73 13.19 84.62 13.19 84.52 13.19C84.42 13.19 84.35 13.20 84.31 13.20C84.27 13.20 84.24 13.22 84.22 13.22C84.01 13.23 83.90 13.31 83.90 13.50L83.90 13.82L85.22 13.82L85.32 13.82L85.58 13.82L85.86 13.82L86.32 13.82L86.32 13.50C86.32 13.33 86.24 13.23 86.06 13.22ZM81.26 5.22C81.28 5.14 81.33 5.04 81.35 4.94C81.38 4.84 81.42 4.75 81.45 4.63C81.48 4.75 81.52 4.84 81.55 4.94C81.58 5.04 81.62 5.12 81.65 5.21L83.61 10.04L79.31 10.04ZM97.37 4.44C97.55 4.42 97.64 4.34 97.64 4.19L97.64 3.91L96.46 3.91L95.75 3.91L94.56 3.91L94.56 4.19C94.56 4.34 94.65 4.42 94.84 4.44L94.98 4.44C95.05 4.44 95.14 4.45 95.28 4.45C95.42 4.45 95.58 4.47 95.75 4.47L95.75 13.26C95.58 13.26 95.42 13.27 95.28 13.27C95.14 13.27 95.05 13.29 94.98 13.29L94.84 13.29C94.65 13.30 94.56 13.38 94.56 13.54L94.56 13.82L95.75 13.82L96.46 13.82L97.64 13.82L97.64 13.54C97.64 13.38 97.55 13.30 97.37 13.29L97.23 13.29C97.16 13.29 97.06 13.27 96.92 13.27C96.78 13.27 96.63 13.26 96.46 13.26L96.46 4.47C96.63 4.47 96.78 4.45 96.92 4.45C97.06 4.45 97.16 4.44 97.23 4.44ZM114.98 6.80C114.76 6.19 114.44 5.68 114.02 5.25C113.60 4.82 113.11 4.48 112.53 4.26C111.96 4.03 111.30 3.92 110.60 3.92L107.17 3.92L105.98 3.92L105.98 4.19C105.98 4.34 106.08 4.42 106.26 4.44L106.40 4.44C106.47 4.44 106.57 4.45 106.71 4.45C106.85 4.45 107.00 4.47 107.17 4.47L107.17 13.26C107.00 13.26 106.85 13.27 106.71 13.27C106.57 13.27 106.47 13.29 106.40 13.29L106.26 13.29C106.08 13.30 105.98 13.38 105.98 13.54L105.98 13.82L107.17 13.82L110.60 13.82C111.30 13.82 111.96 13.71 112.53 13.48C113.11 13.26 113.60 12.92 114.02 12.49C114.44 12.05 114.76 11.54 114.98 10.92C115.21 10.30 115.33 9.63 115.33 8.86C115.33 8.11 115.21 7.42 114.98 6.80ZM114.30 10.72C114.10 11.27 113.85 11.72 113.50 12.10C113.15 12.47 112.73 12.75 112.24 12.95C111.75 13.15 111.20 13.24 110.60 13.24L107.88 13.24L107.88 4.49L110.60 4.49C111.20 4.49 111.75 4.59 112.24 4.79C112.73 4.98 113.15 5.26 113.50 5.64C113.85 6.02 114.10 6.47 114.30 7.01C114.49 7.56 114.59 8.18 114.59 8.86C114.59 9.56 114.49 10.18 114.30 10.72ZM123.52 13.23C123.52 13.41 123.56 13.57 123.68 13.68C123.79 13.79 123.94 13.85 124.11 13.85L124.22 13.85C124.25 13.85 124.28 13.83 124.31 13.82C124.29 13.99 124.25 14.14 124.19 14.29C124.14 14.45 124.07 14.57 124.00 14.70C123.93 14.83 123.86 14.94 123.79 15.02C123.72 15.11 123.65 15.19 123.61 15.23C123.59 15.25 123.58 15.27 123.56 15.30C123.55 15.33 123.54 15.33 123.54 15.36C123.54 15.40 123.55 15.44 123.59 15.48L123.70 15.58C123.86 15.43 124.01 15.29 124.14 15.11C124.26 14.92 124.38 14.74 124.47 14.55C124.57 14.35 124.63 14.15 124.68 13.96C124.74 13.76 124.75 13.58 124.75 13.38C124.75 13.16 124.70 12.98 124.59 12.84C124.47 12.70 124.32 12.63 124.12 12.63C123.94 12.63 123.80 12.70 123.69 12.81C123.58 12.92 123.52 13.06 123.52 13.23ZM155.65 4.44C155.83 4.42 155.93 4.34 155.93 4.19L155.93 3.92L154.76 3.92L154.25 3.92C154.18 3.92 154.14 3.92 154.10 3.93C154.06 3.95 154.03 3.99 153.99 4.05L150.09 10.92C150.05 10.99 150.02 11.06 150.00 11.13C149.97 11.20 149.94 11.28 149.91 11.35C149.86 11.20 149.80 11.06 149.73 10.93L145.73 4.05C145.68 3.99 145.66 3.95 145.61 3.93C145.57 3.92 145.53 3.92 145.46 3.92L144.97 3.92L143.78 3.92L143.78 4.19C143.78 4.34 143.88 4.42 144.06 4.44L144.20 4.44C144.27 4.44 144.37 4.45 144.51 4.45C144.65 4.45 144.80 4.47 144.97 4.47L144.97 13.26C144.80 13.26 144.65 13.27 144.51 13.27C144.37 13.27 144.27 13.29 144.20 13.29L144.06 13.29C143.88 13.30 143.78 13.38 143.78 13.54L143.78 13.82L144.97 13.82L145.59 13.82L146.80 13.82L146.80 13.54C146.80 13.38 146.71 13.30 146.52 13.29L146.38 13.29C146.31 13.29 146.20 13.27 146.06 13.27C145.92 13.27 145.75 13.26 145.59 13.26L145.59 5.38C145.59 5.25 145.59 5.12 145.57 4.98L149.58 11.91C149.65 12.04 149.74 12.10 149.86 12.10L149.97 12.10C150.09 12.10 150.18 12.04 150.25 11.91L154.14 4.98C154.13 5.12 154.13 5.25 154.13 5.38L154.13 13.26C153.96 13.26 153.79 13.27 153.65 13.27C153.51 13.27 153.40 13.29 153.33 13.29L153.19 13.29C153.01 13.30 152.91 13.38 152.91 13.54L152.91 13.82L154.13 13.82L154.76 13.82L155.93 13.82L155.93 13.54C155.93 13.38 155.83 13.30 155.65 13.29L155.53 13.29C155.46 13.29 155.34 13.27 155.20 13.27C155.06 13.27 154.92 13.26 154.76 13.26L154.76 4.47C154.92 4.47 155.06 4.45 155.20 4.45C155.34 4.45 155.46 4.44 155.53 4.44ZM173.57 13.22L173.11 13.17L169.33 3.91L168.62 3.91L164.82 13.17L164.37 13.22C164.19 13.23 164.11 13.33 164.11 13.50L164.11 13.82L164.56 13.82L164.85 13.82L165.10 13.82L165.20 13.82L166.52 13.82L166.52 13.50C166.52 13.31 166.40 13.23 166.19 13.22C166.18 13.22 166.15 13.20 166.11 13.20C166.07 13.20 166.01 13.19 165.91 13.19C165.82 13.19 165.69 13.19 165.55 13.17L166.53 10.75L166.60 10.57L171.33 10.57L171.40 10.75L172.38 13.17C172.24 13.19 172.13 13.19 172.03 13.19C171.93 13.19 171.86 13.20 171.82 13.20C171.78 13.20 171.75 13.22 171.74 13.22C171.53 13.23 171.42 13.31 171.42 13.50L171.42 13.82L172.73 13.82L172.83 13.82L173.10 13.82L173.38 13.82L173.84 13.82L173.84 13.50C173.84 13.33 173.75 13.23 173.57 13.22ZM168.77 5.22C168.80 5.14 168.84 5.04 168.87 4.94C168.90 4.84 168.94 4.75 168.97 4.63C168.99 4.75 169.04 4.84 169.06 4.94C169.09 5.04 169.13 5.12 169.16 5.21L171.12 10.04L166.82 10.04ZM191.07 6.80C190.85 6.19 190.53 5.68 190.11 5.25C189.69 4.82 189.20 4.48 188.62 4.26C188.05 4.03 187.39 3.92 186.69 3.92L183.26 3.92L182.07 3.92L182.07 4.19C182.07 4.34 182.17 4.42 182.35 4.44L182.49 4.44C182.56 4.44 182.66 4.45 182.80 4.45C182.94 4.45 183.09 4.47 183.26 4.47L183.26 13.26C183.09 13.26 182.94 13.27 182.80 13.27C182.66 13.27 182.56 13.29 182.49 13.29L182.35 13.29C182.17 13.30 182.07 13.38 182.07 13.54L182.07 13.82L183.26 13.82L186.69 13.82C187.39 13.82 188.05 13.71 188.62 13.48C189.20 13.26 189.69 12.92 190.11 12.49C190.53 12.05 190.85 11.54 191.07 10.92C191.30 10.30 191.42 9.63 191.42 8.86C191.42 8.11 191.30 7.42 191.07 6.80ZM190.39 10.72C190.19 11.27 189.94 11.72 189.59 12.10C189.24 12.47 188.82 12.75 188.33 12.95C187.84 13.15 187.29 13.24 186.69 13.24L183.97 13.24L183.97 4.49L186.69 4.49C187.29 4.49 187.84 4.59 188.33 4.79C188.82 4.98 189.24 5.26 189.59 5.64C189.94 6.02 190.19 6.47 190.39 7.01C190.58 7.56 190.68 8.18 190.68 8.86C190.68 9.56 190.58 10.18 190.39 10.72ZM200.90 3.92L199.71 3.92L199.71 4.19C199.71 4.34 199.81 4.42 199.99 4.44L200.13 4.44C200.20 4.44 200.30 4.45 200.44 4.45C200.58 4.45 200.73 4.47 200.90 4.47L200.90 13.26C200.73 13.26 200.58 13.27 200.44 13.27C200.30 13.27 200.20 13.29 200.13 13.29L199.99 13.29C199.81 13.30 199.72 13.38 199.72 13.54L199.72 13.82L200.90 13.82L206.84 13.82L206.84 13.22L206.84 11.76L206.49 11.76C206.29 11.76 206.21 11.89 206.19 12.11C206.19 12.14 206.18 12.19 206.18 12.29C206.18 12.39 206.18 12.53 206.16 12.74C206.15 12.95 206.14 13.09 206.14 13.22L201.61 13.22L201.61 9.09L205.56 9.09L205.56 8.51L201.61 8.51L201.61 4.51L206.14 4.51C206.16 5.12 206.19 5.50 206.19 5.63C206.21 5.85 206.29 5.96 206.49 5.96L206.84 5.96L206.84 4.51L206.84 3.92ZM226.98 3.92L225.79 3.92L225.79 4.19C225.79 4.34 225.89 4.42 226.07 4.44L226.21 4.44C226.28 4.44 226.38 4.45 226.52 4.45C226.66 4.45 226.81 4.47 226.98 4.47L226.98 13.26C226.81 13.26 226.66 13.27 226.52 13.27C226.38 13.27 226.28 13.29 226.21 13.29L226.07 13.29C225.89 13.30 225.81 13.38 225.81 13.54L225.81 13.82L226.98 13.82L232.92 13.82L232.92 13.22L232.92 11.76L232.57 11.76C232.37 11.76 232.29 11.89 232.27 12.11C232.27 12.14 232.26 12.19 232.26 12.29C232.26 12.39 232.26 12.53 232.25 12.74C232.23 12.95 232.22 13.09 232.22 13.22L227.70 13.22L227.70 9.09L231.64 9.09L231.64 8.51L227.70 8.51L227.70 4.51L232.22 4.51C232.25 5.12 232.27 5.50 232.27 5.63C232.29 5.85 232.37 5.96 232.57 5.96L232.92 5.96L232.92 4.51L232.92 3.92ZM248.63 3.92L248.28 3.92L242.69 3.92L241.50 3.92L241.50 4.19C241.50 4.34 241.60 4.42 241.78 4.44L241.92 4.44C241.99 4.44 242.09 4.45 242.23 4.45C242.37 4.45 242.52 4.47 242.69 4.47L242.69 13.26C242.52 13.26 242.37 13.27 242.23 13.27C242.09 13.27 241.99 13.29 241.92 13.29L241.78 13.29C241.60 13.30 241.50 13.38 241.50 13.54L241.50 13.82L242.69 13.82L243.40 13.82L244.58 13.82L244.58 13.54C244.58 13.38 244.50 13.30 244.31 13.29L244.17 13.29C244.10 13.29 244.01 13.27 243.87 13.27C243.73 13.27 243.57 13.26 243.40 13.26L243.40 9.27L247.10 9.27L247.10 8.67L243.40 8.67L243.40 4.51L248.01 4.51C248.04 5.18 248.07 5.56 248.07 5.63C248.08 5.85 248.18 5.96 248.37 5.96L248.71 5.96L248.71 3.92ZM263.96 3.92L263.61 3.92L258.02 3.92L256.83 3.92L256.83 4.19C256.83 4.34 256.93 4.42 257.11 4.44L257.25 4.44C257.32 4.44 257.42 4.45 257.56 4.45C257.70 4.45 257.85 4.47 258.02 4.47L258.02 13.26C257.85 13.26 257.70 13.27 257.56 13.27C257.42 13.27 257.32 13.29 257.25 13.29L257.11 13.29C256.93 13.30 256.83 13.38 256.83 13.54L256.83 13.82L258.02 13.82L258.73 13.82L259.91 13.82L259.91 13.54C259.91 13.38 259.83 13.30 259.64 13.29L259.50 13.29C259.43 13.29 259.34 13.27 259.20 13.27C259.06 13.27 258.90 13.26 258.73 13.26L258.73 9.27L262.43 9.27L262.43 8.67L258.73 8.67L258.73 4.51L263.34 4.51C263.37 5.18 263.40 5.56 263.40 5.63C263.41 5.85 263.51 5.96 263.70 5.96L264.04 5.96L264.04 3.92ZM281.43 8.86C281.43 8.11 281.30 7.41 281.08 6.79C280.85 6.17 280.53 5.64 280.11 5.19C279.69 4.75 279.20 4.40 278.63 4.16C278.05 3.92 277.40 3.79 276.70 3.79C276.00 3.79 275.37 3.92 274.79 4.16C274.22 4.40 273.71 4.75 273.29 5.19C272.87 5.64 272.55 6.17 272.33 6.79C272.10 7.41 271.98 8.11 271.98 8.86C271.98 9.63 272.10 10.33 272.33 10.95C272.55 11.56 272.87 12.10 273.29 12.54C273.71 12.99 274.22 13.33 274.79 13.57C275.37 13.80 276.00 13.93 276.70 13.93C277.40 13.93 278.05 13.80 278.63 13.57C279.20 13.33 279.69 12.99 280.11 12.54C280.53 12.10 280.85 11.56 281.08 10.95C281.30 10.33 281.43 9.63 281.43 8.86ZM280.67 8.86C280.67 9.56 280.59 10.18 280.39 10.72C280.20 11.27 279.93 11.75 279.58 12.12C279.23 12.50 278.81 12.81 278.32 13.01C277.83 13.20 277.30 13.30 276.70 13.30C276.11 13.30 275.58 13.20 275.09 13.01C274.60 12.81 274.18 12.50 273.83 12.12C273.48 11.75 273.20 11.27 273 10.72C272.80 10.18 272.72 9.56 272.72 8.86C272.72 8.18 272.80 7.55 273 7.00C273.20 6.45 273.48 5.98 273.83 5.60C274.18 5.22 274.60 4.91 275.09 4.72C275.58 4.52 276.11 4.41 276.70 4.41C277.30 4.41 277.83 4.52 278.32 4.72C278.81 4.91 279.23 5.22 279.58 5.60C279.93 5.98 280.20 6.45 280.39 7.00C280.59 7.55 280.67 8.18 280.67 8.86ZM297.70 13.29L297.60 13.29L297.42 13.29C297.33 13.29 297.25 13.27 297.16 13.27L294.20 9.53C294.11 9.42 294.00 9.32 293.89 9.25C294.32 9.21 294.71 9.11 295.06 8.96C295.41 8.81 295.69 8.61 295.95 8.37C296.18 8.13 296.38 7.85 296.51 7.55C296.63 7.24 296.70 6.89 296.70 6.51C296.70 5.66 296.42 5.03 295.86 4.58C295.30 4.14 294.45 3.92 293.30 3.92L290.89 3.92L289.72 3.92L289.72 4.19C289.72 4.34 289.80 4.42 289.98 4.44L290.12 4.44C290.19 4.44 290.29 4.45 290.43 4.45C290.57 4.45 290.72 4.47 290.89 4.47L290.89 13.26C290.72 13.26 290.57 13.27 290.43 13.27C290.29 13.27 290.19 13.29 290.12 13.29L289.98 13.29C289.80 13.30 289.70 13.38 289.70 13.54L289.70 13.82L290.89 13.82L291.61 13.82L292.78 13.82L292.78 13.54C292.78 13.38 292.68 13.30 292.50 13.29L292.36 13.29C292.29 13.29 292.19 13.27 292.05 13.27C291.91 13.27 291.77 13.26 291.61 13.26L291.61 9.34L292.78 9.34C292.98 9.34 293.12 9.35 293.20 9.39C293.29 9.44 293.37 9.52 293.45 9.62L296.63 13.64C296.69 13.71 296.73 13.75 296.79 13.78C296.84 13.80 296.91 13.82 296.98 13.82L297.05 13.82L297.60 13.82L297.96 13.82L297.96 13.54C297.96 13.38 297.88 13.30 297.70 13.29ZM293.20 8.81L291.61 8.81L291.61 4.48L293.30 4.48C294.18 4.48 294.85 4.66 295.32 5.00C295.78 5.33 296.00 5.87 296.00 6.57C296.00 6.92 295.95 7.21 295.82 7.49C295.69 7.77 295.50 7.99 295.26 8.19C295.02 8.39 294.73 8.55 294.38 8.65C294.03 8.75 293.64 8.81 293.20 8.81ZM313.38 3.92L313.18 3.92L305.89 3.92L305.68 3.92L305.58 3.92L305.58 5.96L305.93 5.96C306.12 5.96 306.21 5.85 306.22 5.63C306.22 5.53 306.25 5.17 306.28 4.52L309.18 4.52L309.18 13.26C309.01 13.26 308.87 13.27 308.73 13.27C308.59 13.27 308.48 13.29 308.41 13.29L308.28 13.29C308.10 13.30 308.00 13.38 308.00 13.54L308.00 13.82L309.18 13.82L309.89 13.82L311.08 13.82L311.08 13.54C311.08 13.38 310.98 13.30 310.80 13.29L310.66 13.29C310.59 13.29 310.49 13.27 310.35 13.27C310.21 13.27 310.06 13.26 309.89 13.26L309.89 4.52L312.77 4.52C312.82 5.24 312.83 5.60 312.83 5.63C312.84 5.85 312.94 5.96 313.14 5.96L313.47 5.96L313.47 3.92ZM327.95 11.97C327.75 11.97 327.67 12.08 327.66 12.31C327.66 12.32 327.66 12.38 327.64 12.43C327.63 12.49 327.63 12.59 327.61 12.71C327.60 12.84 327.59 13.01 327.57 13.20L323.48 13.20L323.48 4.47C323.65 4.47 323.79 4.45 323.93 4.45C324.07 4.45 324.18 4.44 324.25 4.44L324.38 4.44C324.56 4.42 324.66 4.34 324.66 4.19L324.66 3.92L323.48 3.92L322.77 3.92L321.58 3.92L321.58 4.19C321.58 4.34 321.68 4.42 321.86 4.44L322.00 4.44C322.07 4.44 322.17 4.45 322.31 4.45C322.45 4.45 322.60 4.47 322.77 4.47L322.77 13.26C322.60 13.26 322.45 13.27 322.31 13.27C322.17 13.27 322.07 13.29 322.00 13.29L321.86 13.29C321.68 13.30 321.58 13.38 321.58 13.54L321.58 13.82L322.77 13.82L328.05 13.82L328.17 13.82L328.30 13.82L328.30 13.55L328.30 12.99L328.30 11.97L328.02 11.97ZM337.92 3.92L336.73 3.92L336.73 4.19C336.73 4.34 336.83 4.42 337.01 4.44L337.15 4.44C337.22 4.44 337.32 4.45 337.46 4.45C337.60 4.45 337.75 4.47 337.92 4.47L337.92 13.26C337.75 13.26 337.60 13.27 337.46 13.27C337.32 13.27 337.22 13.29 337.15 13.29L337.01 13.29C336.83 13.30 336.74 13.38 336.74 13.54L336.74 13.82L337.92 13.82L343.85 13.82L343.85 13.22L343.85 11.76L343.50 11.76C343.31 11.76 343.22 11.89 343.21 12.11C343.21 12.14 343.20 12.19 343.20 12.29C343.20 12.39 343.20 12.53 343.18 12.74C343.17 12.95 343.15 13.09 343.15 13.22L338.63 13.22L338.63 9.09L342.58 9.09L342.58 8.51L338.63 8.51L338.63 4.51L343.15 4.51C343.18 5.12 343.21 5.50 343.21 5.63C343.22 5.85 343.31 5.96 343.50 5.96L343.85 5.96L343.85 4.51L343.85 3.92ZM358.16 9.91C358.02 9.65 357.83 9.39 357.59 9.21C357.35 9.03 357.10 8.88 356.80 8.75C356.51 8.62 356.19 8.51 355.88 8.41C355.57 8.32 355.26 8.20 354.97 8.11C354.68 7.99 354.41 7.87 354.17 7.71C353.93 7.56 353.75 7.38 353.61 7.15C353.47 6.93 353.39 6.65 353.39 6.31C353.39 6.06 353.44 5.82 353.54 5.59C353.64 5.35 353.78 5.15 353.96 4.97C354.14 4.79 354.37 4.65 354.65 4.55C354.93 4.45 355.24 4.40 355.60 4.40C356.27 4.40 356.89 4.51 357.45 4.75C357.49 5.54 357.52 5.99 357.52 6.06C357.53 6.29 357.62 6.41 357.81 6.41L358.15 6.41L358.15 4.38C357.27 4.00 356.43 3.81 355.60 3.81C355.14 3.81 354.73 3.88 354.37 4.02C354.00 4.16 353.71 4.34 353.47 4.58C353.23 4.82 353.04 5.08 352.91 5.39C352.79 5.70 352.73 6.02 352.73 6.36C352.73 6.78 352.80 7.14 352.94 7.42C353.08 7.70 353.28 7.92 353.51 8.12C353.75 8.32 354.00 8.46 354.30 8.58C354.59 8.71 354.91 8.82 355.22 8.92C355.53 9.02 355.82 9.11 356.13 9.21C356.43 9.31 356.69 9.45 356.93 9.60C357.17 9.76 357.35 9.94 357.49 10.16C357.63 10.39 357.70 10.68 357.70 11.03C357.70 11.35 357.64 11.66 357.53 11.94C357.42 12.22 357.27 12.46 357.06 12.67C356.85 12.88 356.58 13.05 356.27 13.16C355.96 13.29 355.61 13.33 355.22 13.33C354.44 13.33 353.78 13.20 353.25 12.95C353.23 12.75 353.23 12.54 353.22 12.32C353.21 12.10 353.21 11.91 353.19 11.76C353.18 11.61 353.18 11.52 353.18 11.51C353.16 11.28 353.07 11.17 352.87 11.17L352.53 11.17L352.53 13.02L352.53 13.20L352.53 13.38C353.39 13.75 354.27 13.93 355.19 13.93C355.70 13.93 356.15 13.85 356.54 13.69C356.93 13.54 357.27 13.31 357.53 13.05C357.80 12.78 358.02 12.46 358.16 12.10C358.30 11.73 358.37 11.34 358.37 10.92C358.37 10.51 358.30 10.18 358.16 9.91ZM372.36 9.91C372.22 9.65 372.02 9.39 371.78 9.21C371.55 9.03 371.29 8.88 371 8.75C370.71 8.62 370.38 8.51 370.08 8.41C369.77 8.32 369.46 8.20 369.17 8.11C368.87 7.99 368.61 7.87 368.37 7.71C368.13 7.56 367.95 7.38 367.81 7.15C367.67 6.93 367.58 6.65 367.58 6.31C367.58 6.06 367.64 5.82 367.74 5.59C367.84 5.35 367.98 5.15 368.16 4.97C368.34 4.79 368.56 4.65 368.84 4.55C369.12 4.45 369.43 4.40 369.80 4.40C370.47 4.40 371.08 4.51 371.64 4.75C371.69 5.54 371.71 5.99 371.71 6.06C371.73 6.29 371.81 6.41 372.01 6.41L372.34 6.41L372.34 4.38C371.46 4.00 370.62 3.81 369.80 3.81C369.33 3.81 368.93 3.88 368.56 4.02C368.20 4.16 367.91 4.34 367.67 4.58C367.43 4.82 367.23 5.08 367.11 5.39C366.98 5.70 366.93 6.02 366.93 6.36C366.93 6.78 367.00 7.14 367.14 7.42C367.28 7.70 367.47 7.92 367.71 8.12C367.95 8.32 368.20 8.46 368.49 8.58C368.79 8.71 369.11 8.82 369.42 8.92C369.73 9.02 370.02 9.11 370.33 9.21C370.62 9.31 370.89 9.45 371.13 9.60C371.36 9.76 371.55 9.94 371.69 10.16C371.83 10.39 371.90 10.68 371.90 11.03C371.90 11.35 371.84 11.66 371.73 11.94C371.62 12.22 371.46 12.46 371.25 12.67C371.04 12.88 370.78 13.05 370.47 13.16C370.16 13.29 369.81 13.33 369.42 13.33C368.63 13.33 367.98 13.20 367.44 12.95C367.43 12.75 367.43 12.54 367.42 12.32C367.40 12.10 367.40 11.91 367.39 11.76C367.37 11.61 367.37 11.52 367.37 11.51C367.36 11.28 367.26 11.17 367.07 11.17L366.73 11.17L366.73 13.02L366.73 13.20L366.73 13.38C367.58 13.75 368.47 13.93 369.39 13.93C369.89 13.93 370.34 13.85 370.73 13.69C371.13 13.54 371.46 13.31 371.73 13.05C371.99 12.78 372.22 12.46 372.36 12.10C372.50 11.73 372.57 11.34 372.57 10.92C372.57 10.51 372.50 10.18 372.36 9.91ZM381.11 13.29C381.11 13.47 381.16 13.61 381.29 13.73C381.42 13.86 381.57 13.93 381.75 13.93C381.84 13.93 381.92 13.90 382.00 13.87C382.09 13.85 382.14 13.79 382.20 13.73C382.26 13.68 382.31 13.62 382.34 13.54C382.37 13.45 382.40 13.38 382.40 13.29C382.40 13.20 382.37 13.12 382.34 13.03C382.31 12.95 382.26 12.88 382.20 12.82C382.14 12.77 382.09 12.71 382.00 12.68C381.92 12.66 381.84 12.63 381.75 12.63C381.65 12.63 381.57 12.66 381.49 12.68C381.40 12.71 381.35 12.77 381.29 12.82C381.23 12.88 381.18 12.95 381.15 13.03C381.12 13.12 381.11 13.20 381.11 13.29Z"></path></g></svg>