<svg data-v-423bf9ae="" xmlns="http://www.w3.org/2000/svg" viewBox="0 0 473.6872360826154 60" class="font"><!----><!----><!----><g data-v-423bf9ae="" id="c3119136-de61-450b-ae44-6e2d1a9889fb" fill="white" transform="matrix(5.791505450303629,0,0,5.791505450303629,-6.544399945125406,-20.849419545609223)"><path d="M3.86 13.94C6.15 13.94 6.90 12.54 6.90 10.82L6.90 4.52L1.89 4.52L1.89 5.50L5.74 5.50L5.74 10.72C5.74 12.25 5.15 12.92 3.84 12.92C3.12 12.92 2.42 12.53 1.89 11.70L1.13 12.40C1.76 13.48 2.83 13.94 3.86 13.94ZM12.60 13.96C14.39 13.96 15.96 12.59 15.96 10.22C15.96 7.83 14.39 6.47 12.60 6.47C10.81 6.47 9.24 7.83 9.24 10.22C9.24 12.59 10.81 13.96 12.60 13.96ZM12.60 13.01C11.30 13.01 10.43 11.89 10.43 10.22C10.43 8.55 11.30 7.42 12.60 7.42C13.90 7.42 14.77 8.55 14.77 10.22C14.77 11.89 13.90 13.01 12.60 13.01ZM18.10 13.78L19.25 13.78L19.25 8.79C20.05 7.90 20.59 7.46 21.41 7.46C22.53 7.46 22.97 8.12 22.97 9.49L22.97 13.78L24.12 13.78L24.12 9.34C24.12 7.46 23.38 6.47 21.77 6.47C20.71 6.47 19.92 7.07 19.21 7.88L19.15 7.88L19.05 6.64L18.10 6.64ZM29.01 8.36L29.79 8.36L30.14 5.54L30.17 4.16L28.63 4.16L28.66 5.54ZM37.94 13.96C39.89 13.96 40.96 12.99 40.96 11.83C40.96 10.75 40.08 10.19 38.25 9.70C37.02 9.38 36.18 9.02 36.18 8.43C36.18 7.85 36.58 7.36 37.86 7.36C38.70 7.36 39.42 7.67 40.03 8.12L40.59 7.36C39.91 6.89 38.88 6.47 37.86 6.47C35.98 6.47 35 7.35 35 8.48C35 9.48 36.19 10.14 37.59 10.50C39.26 10.93 39.80 11.34 39.80 11.90C39.80 12.54 39.20 13.05 37.98 13.05C36.76 13.05 35.92 12.67 35.17 12.08L34.61 12.84C35.43 13.44 36.61 13.96 37.94 13.96ZM54.01 13.78L55.19 13.78L55.19 5.52L58.21 5.52L58.21 4.54L50.99 4.54L50.99 5.52L54.01 5.52ZM63.42 13.96C64.51 13.96 65.37 13.57 66.04 13.12L65.63 12.35C65.00 12.77 64.36 13.02 63.56 13.02C62.08 13.02 61.01 12.03 60.96 10.49L66.28 10.49C66.30 10.30 66.32 10.05 66.32 9.81C66.32 7.80 65.17 6.47 63.22 6.47C61.46 6.47 59.77 7.90 59.77 10.22C59.77 12.56 61.40 13.96 63.42 13.96ZM60.94 9.65C61.12 8.22 62.13 7.38 63.24 7.38C64.50 7.38 65.25 8.19 65.25 9.65ZM72.04 13.96C73.05 13.96 74.00 13.54 74.75 12.84L74.24 12.10C73.67 12.60 72.97 13.01 72.13 13.01C70.56 13.01 69.51 11.89 69.51 10.22C69.51 8.55 70.59 7.42 72.16 7.42C72.87 7.42 73.46 7.73 74.02 8.26L74.59 7.52C74.03 6.94 73.22 6.47 72.11 6.47C70.06 6.47 68.32 7.83 68.32 10.22C68.32 12.59 69.92 13.96 72.04 13.96ZM76.90 13.78L78.05 13.78L78.05 8.79C78.85 7.90 79.39 7.46 80.21 7.46C81.33 7.46 81.77 8.12 81.77 9.49L81.77 13.78L82.92 13.78L82.92 9.34C82.92 7.46 82.18 6.47 80.57 6.47C79.51 6.47 78.72 7.07 77.99 7.88L78.05 6.17L78.05 3.60L76.90 3.60Z"></path></g><!----><!----></svg>